<?xml version="1.0" encoding="UTF-8" standalone="no"?><!DOCTYPE svg PUBLIC "-//W3C//DTD SVG 1.1//EN" "http://www.w3.org/Graphics/SVG/1.1/DTD/svg11.dtd"><svg width="69px" height="73px" version="1.1" xmlns="http://www.w3.org/2000/svg" xmlns:xlink="http://www.w3.org/1999/xlink" xml:space="preserve" xmlns:serif="http://www.serif.com/" style="fill-rule:evenodd;clip-rule:evenodd;stroke-linejoin:round;stroke-miterlimit:2;"><path d="M51.793,70.012C46.372,73.975 22.116,73.975 16.695,70.012C13.893,67.963 7.256,48.475 7.695,25.012C8.135,1.549 -2.816,-0.175 0.695,0.012C13.195,0.679 20.862,5.679 28.695,20.012C28.695,20.012 17.792,18.522 16.695,32.012C16.321,36.618 17.862,54.512 20.695,61.012C22.499,65.149 45.99,65.149 47.793,61.012C50.626,54.512 52.167,36.618 51.793,32.012C50.697,18.522 39.793,20.012 39.793,20.012C47.626,5.679 55.293,0.679 67.793,0.012C71.304,-0.175 60.354,1.549 60.793,25.012C61.233,48.475 54.595,67.963 51.793,70.012Z" style="fill:#ffb900;"/></svg>